<?xml version="1.0" encoding="UTF-8" standalone="no"?>
<svg width="350px" height="350px" viewBox="0 0 350 350" version="1.1" xmlns="http://www.w3.org/2000/svg" xmlns:xlink="http://www.w3.org/1999/xlink" xmlns:sketch="http://www.bohemiancoding.com/sketch/ns">
    <!-- Generator: Sketch 3.0.2 (7799) - http://www.bohemiancoding.com/sketch -->
    <title>1_blue_transparent</title>
    <description>Created with Sketch.</description>
    <defs></defs>
    <g id="Page-1" stroke="none" stroke-width="1" fill="none" fill-rule="evenodd" sketch:type="MSPage">
        <g id="blue" sketch:type="MSLayerGroup" fill="#3C5A9A">
            <path d="M232,63.4982012 L232,100.608371 C219.554286,100.493845 217.281633,100.715769 208.244898,100.608371 C196.584082,100.46976 189.83102,106.334642 189.899347,119.319023 C189.899347,127.041379 189.818776,138.852489 189.877551,146.81176 L230.530612,146.81176 C228.816327,160.572998 227.102041,174.33571 225.387755,188.099896 L189.877551,188.099896 L189.877551,294.023625 L147.510204,294.023625 L147.510204,188.099896 L112,188.099896 L112,146.81176 C123.835673,146.81176 135.674776,146.81176 147.513143,146.145989 C147.572653,115.882277 147.310122,104.314472 148.979592,100.608371 C154.266939,78.170235 170.644,63.5131927 195.510204,62.0236249 C200.57102,61.9417859 205.388163,62.1054639 210.44898,62.0236249 L232,63.4982012 Z" id="Color_Fill_1-6" sketch:type="MSShapeGroup"></path>
        </g>
    </g>
</svg>